<mxfile host="app.diagrams.net" modified="2022-10-19T09:25:29.890Z" agent="5.0 (Windows)" etag="QxKYwLXL_3fRw-ruAw03" version="20.4.0" type="github">
  <diagram id="C5RBs43oDa-KdzZeNtuy" name="Page-1">
    <mxGraphModel dx="3076" dy="737" grid="1" gridSize="10" guides="1" tooltips="1" connect="1" arrows="1" fold="1" page="1" pageScale="1" pageWidth="827" pageHeight="1169" math="0" shadow="0">
      <root>
        <mxCell id="WIyWlLk6GJQsqaUBKTNV-0" />
        <mxCell id="WIyWlLk6GJQsqaUBKTNV-1" parent="WIyWlLk6GJQsqaUBKTNV-0" />
        <mxCell id="_UWJMSMbk28Q0Uw3pWes-2" value="" style="edgeStyle=orthogonalEdgeStyle;rounded=0;orthogonalLoop=1;jettySize=auto;html=1;" edge="1" parent="WIyWlLk6GJQsqaUBKTNV-1" source="_UWJMSMbk28Q0Uw3pWes-0" target="_UWJMSMbk28Q0Uw3pWes-1">
          <mxGeometry relative="1" as="geometry" />
        </mxCell>
        <mxCell id="_UWJMSMbk28Q0Uw3pWes-0" value="开始" style="rounded=1;whiteSpace=wrap;html=1;fontSize=12;glass=0;strokeWidth=1;shadow=0;" vertex="1" parent="WIyWlLk6GJQsqaUBKTNV-1">
          <mxGeometry x="-1634" y="80" width="120" height="40" as="geometry" />
        </mxCell>
        <mxCell id="_UWJMSMbk28Q0Uw3pWes-4" value="" style="edgeStyle=orthogonalEdgeStyle;rounded=0;orthogonalLoop=1;jettySize=auto;html=1;" edge="1" parent="WIyWlLk6GJQsqaUBKTNV-1" source="_UWJMSMbk28Q0Uw3pWes-1" target="_UWJMSMbk28Q0Uw3pWes-3">
          <mxGeometry relative="1" as="geometry" />
        </mxCell>
        <mxCell id="_UWJMSMbk28Q0Uw3pWes-1" value="查询specAppl记录" style="rounded=1;whiteSpace=wrap;html=1;glass=0;strokeWidth=1;shadow=0;" vertex="1" parent="WIyWlLk6GJQsqaUBKTNV-1">
          <mxGeometry x="-1419" y="70" width="120" height="60" as="geometry" />
        </mxCell>
        <mxCell id="_UWJMSMbk28Q0Uw3pWes-6" style="edgeStyle=orthogonalEdgeStyle;rounded=0;orthogonalLoop=1;jettySize=auto;html=1;exitX=1;exitY=0.5;exitDx=0;exitDy=0;entryX=0;entryY=0.5;entryDx=0;entryDy=0;" edge="1" parent="WIyWlLk6GJQsqaUBKTNV-1" source="_UWJMSMbk28Q0Uw3pWes-3" target="_UWJMSMbk28Q0Uw3pWes-5">
          <mxGeometry relative="1" as="geometry" />
        </mxCell>
        <mxCell id="_UWJMSMbk28Q0Uw3pWes-3" value="&lt;div&gt;过滤没有被删除的&lt;/div&gt;&lt;div&gt;dbItem&lt;br&gt;&lt;/div&gt;" style="rounded=1;whiteSpace=wrap;html=1;glass=0;strokeWidth=1;shadow=0;" vertex="1" parent="WIyWlLk6GJQsqaUBKTNV-1">
          <mxGeometry x="-1206.5" y="70" width="120" height="60" as="geometry" />
        </mxCell>
        <mxCell id="_UWJMSMbk28Q0Uw3pWes-8" style="edgeStyle=orthogonalEdgeStyle;rounded=0;orthogonalLoop=1;jettySize=auto;html=1;exitX=0.5;exitY=1;exitDx=0;exitDy=0;" edge="1" parent="WIyWlLk6GJQsqaUBKTNV-1" source="_UWJMSMbk28Q0Uw3pWes-5" target="_UWJMSMbk28Q0Uw3pWes-7">
          <mxGeometry relative="1" as="geometry" />
        </mxCell>
        <mxCell id="_UWJMSMbk28Q0Uw3pWes-5" value="解析excel 文件成dtoItems对象集合" style="rounded=1;whiteSpace=wrap;html=1;fontSize=12;glass=0;strokeWidth=1;shadow=0;" vertex="1" parent="WIyWlLk6GJQsqaUBKTNV-1">
          <mxGeometry x="-1006.5" y="70" width="120" height="60" as="geometry" />
        </mxCell>
        <mxCell id="_UWJMSMbk28Q0Uw3pWes-77" style="edgeStyle=orthogonalEdgeStyle;rounded=0;orthogonalLoop=1;jettySize=auto;html=1;exitX=0;exitY=0.5;exitDx=0;exitDy=0;entryX=0.5;entryY=0;entryDx=0;entryDy=0;" edge="1" parent="WIyWlLk6GJQsqaUBKTNV-1" source="_UWJMSMbk28Q0Uw3pWes-7" target="_UWJMSMbk28Q0Uw3pWes-9">
          <mxGeometry relative="1" as="geometry" />
        </mxCell>
        <mxCell id="_UWJMSMbk28Q0Uw3pWes-7" value="遍历dtoItems集合" style="rounded=1;whiteSpace=wrap;html=1;" vertex="1" parent="WIyWlLk6GJQsqaUBKTNV-1">
          <mxGeometry x="-1006.5" y="200" width="120" height="60" as="geometry" />
        </mxCell>
        <mxCell id="_UWJMSMbk28Q0Uw3pWes-12" value="" style="edgeStyle=orthogonalEdgeStyle;rounded=0;orthogonalLoop=1;jettySize=auto;html=1;entryX=0;entryY=0.5;entryDx=0;entryDy=0;" edge="1" parent="WIyWlLk6GJQsqaUBKTNV-1" source="_UWJMSMbk28Q0Uw3pWes-9" target="_UWJMSMbk28Q0Uw3pWes-14">
          <mxGeometry relative="1" as="geometry">
            <mxPoint x="-696.5" y="360.5" as="targetPoint" />
          </mxGeometry>
        </mxCell>
        <mxCell id="_UWJMSMbk28Q0Uw3pWes-13" value="yes" style="edgeLabel;html=1;align=center;verticalAlign=middle;resizable=0;points=[];" vertex="1" connectable="0" parent="_UWJMSMbk28Q0Uw3pWes-12">
          <mxGeometry x="-0.2588" y="1" relative="1" as="geometry">
            <mxPoint x="-14" y="1" as="offset" />
          </mxGeometry>
        </mxCell>
        <mxCell id="_UWJMSMbk28Q0Uw3pWes-17" style="edgeStyle=orthogonalEdgeStyle;rounded=0;orthogonalLoop=1;jettySize=auto;html=1;exitX=0;exitY=0.5;exitDx=0;exitDy=0;" edge="1" parent="WIyWlLk6GJQsqaUBKTNV-1" source="_UWJMSMbk28Q0Uw3pWes-9" target="_UWJMSMbk28Q0Uw3pWes-16">
          <mxGeometry relative="1" as="geometry" />
        </mxCell>
        <mxCell id="_UWJMSMbk28Q0Uw3pWes-18" value="no" style="edgeLabel;html=1;align=center;verticalAlign=middle;resizable=0;points=[];" vertex="1" connectable="0" parent="_UWJMSMbk28Q0Uw3pWes-17">
          <mxGeometry x="-0.3288" y="1" relative="1" as="geometry">
            <mxPoint as="offset" />
          </mxGeometry>
        </mxCell>
        <mxCell id="_UWJMSMbk28Q0Uw3pWes-9" value="&lt;div&gt;校验seq是否&lt;/div&gt;&lt;div&gt;重复&lt;br&gt;&lt;/div&gt;" style="rhombus;whiteSpace=wrap;html=1;" vertex="1" parent="WIyWlLk6GJQsqaUBKTNV-1">
          <mxGeometry x="-1111.5" y="260" width="80" height="80" as="geometry" />
        </mxCell>
        <mxCell id="_UWJMSMbk28Q0Uw3pWes-78" style="edgeStyle=orthogonalEdgeStyle;rounded=0;orthogonalLoop=1;jettySize=auto;html=1;exitX=1;exitY=0.5;exitDx=0;exitDy=0;entryX=1;entryY=0.5;entryDx=0;entryDy=0;" edge="1" parent="WIyWlLk6GJQsqaUBKTNV-1" source="_UWJMSMbk28Q0Uw3pWes-14" target="_UWJMSMbk28Q0Uw3pWes-7">
          <mxGeometry relative="1" as="geometry" />
        </mxCell>
        <mxCell id="_UWJMSMbk28Q0Uw3pWes-14" value="errorMessage添加错误日志" style="rounded=1;whiteSpace=wrap;html=1;" vertex="1" parent="WIyWlLk6GJQsqaUBKTNV-1">
          <mxGeometry x="-966.5" y="280" width="90" height="40" as="geometry" />
        </mxCell>
        <mxCell id="_UWJMSMbk28Q0Uw3pWes-19" style="edgeStyle=orthogonalEdgeStyle;rounded=0;orthogonalLoop=1;jettySize=auto;html=1;exitX=0.5;exitY=1;exitDx=0;exitDy=0;entryX=0.5;entryY=1;entryDx=0;entryDy=0;" edge="1" parent="WIyWlLk6GJQsqaUBKTNV-1" source="_UWJMSMbk28Q0Uw3pWes-16" target="_UWJMSMbk28Q0Uw3pWes-14">
          <mxGeometry relative="1" as="geometry">
            <Array as="points">
              <mxPoint x="-1246.5" y="370" />
              <mxPoint x="-921.5" y="370" />
            </Array>
          </mxGeometry>
        </mxCell>
        <mxCell id="_UWJMSMbk28Q0Uw3pWes-22" value="" style="edgeStyle=orthogonalEdgeStyle;rounded=0;orthogonalLoop=1;jettySize=auto;html=1;entryX=1;entryY=0.5;entryDx=0;entryDy=0;" edge="1" parent="WIyWlLk6GJQsqaUBKTNV-1" source="_UWJMSMbk28Q0Uw3pWes-16" target="_UWJMSMbk28Q0Uw3pWes-23">
          <mxGeometry relative="1" as="geometry">
            <mxPoint x="-1032.5" y="360.5" as="targetPoint" />
          </mxGeometry>
        </mxCell>
        <mxCell id="_UWJMSMbk28Q0Uw3pWes-26" value="no" style="edgeLabel;html=1;align=center;verticalAlign=middle;resizable=0;points=[];" vertex="1" connectable="0" parent="_UWJMSMbk28Q0Uw3pWes-22">
          <mxGeometry x="-0.232" y="-2" relative="1" as="geometry">
            <mxPoint x="16" y="2" as="offset" />
          </mxGeometry>
        </mxCell>
        <mxCell id="_UWJMSMbk28Q0Uw3pWes-16" value="&lt;div&gt;校验item&lt;/div&gt;&lt;div&gt;Code是否&lt;/div&gt;&lt;div&gt;重复&lt;br&gt;&lt;/div&gt;" style="rhombus;whiteSpace=wrap;html=1;" vertex="1" parent="WIyWlLk6GJQsqaUBKTNV-1">
          <mxGeometry x="-1286.5" y="260" width="80" height="80" as="geometry" />
        </mxCell>
        <mxCell id="_UWJMSMbk28Q0Uw3pWes-24" style="edgeStyle=orthogonalEdgeStyle;rounded=0;orthogonalLoop=1;jettySize=auto;html=1;exitX=0;exitY=0.5;exitDx=0;exitDy=0;entryX=0.5;entryY=1;entryDx=0;entryDy=0;" edge="1" parent="WIyWlLk6GJQsqaUBKTNV-1" source="_UWJMSMbk28Q0Uw3pWes-23" target="_UWJMSMbk28Q0Uw3pWes-0">
          <mxGeometry relative="1" as="geometry" />
        </mxCell>
        <mxCell id="_UWJMSMbk28Q0Uw3pWes-27" value="yes" style="edgeLabel;html=1;align=center;verticalAlign=middle;resizable=0;points=[];" vertex="1" connectable="0" parent="_UWJMSMbk28Q0Uw3pWes-24">
          <mxGeometry x="-0.7444" y="-1" relative="1" as="geometry">
            <mxPoint as="offset" />
          </mxGeometry>
        </mxCell>
        <mxCell id="_UWJMSMbk28Q0Uw3pWes-68" style="edgeStyle=orthogonalEdgeStyle;rounded=0;orthogonalLoop=1;jettySize=auto;html=1;exitX=0.5;exitY=1;exitDx=0;exitDy=0;" edge="1" parent="WIyWlLk6GJQsqaUBKTNV-1" source="_UWJMSMbk28Q0Uw3pWes-23" target="_UWJMSMbk28Q0Uw3pWes-29">
          <mxGeometry relative="1" as="geometry">
            <mxPoint x="-1171.5" y="408" as="sourcePoint" />
          </mxGeometry>
        </mxCell>
        <mxCell id="_UWJMSMbk28Q0Uw3pWes-70" value="no" style="edgeLabel;html=1;align=center;verticalAlign=middle;resizable=0;points=[];" vertex="1" connectable="0" parent="_UWJMSMbk28Q0Uw3pWes-68">
          <mxGeometry x="-0.6607" y="-1" relative="1" as="geometry">
            <mxPoint as="offset" />
          </mxGeometry>
        </mxCell>
        <mxCell id="_UWJMSMbk28Q0Uw3pWes-23" value="&lt;div&gt;errorMessage&lt;/div&gt;&amp;gt;0" style="rhombus;whiteSpace=wrap;html=1;" vertex="1" parent="WIyWlLk6GJQsqaUBKTNV-1">
          <mxGeometry x="-1501.5" y="252.5" width="95" height="95" as="geometry" />
        </mxCell>
        <mxCell id="_UWJMSMbk28Q0Uw3pWes-28" style="edgeStyle=orthogonalEdgeStyle;rounded=0;orthogonalLoop=1;jettySize=auto;html=1;exitX=1;exitY=0.5;exitDx=0;exitDy=0;entryX=0;entryY=0.5;entryDx=0;entryDy=0;" edge="1" parent="WIyWlLk6GJQsqaUBKTNV-1" source="_UWJMSMbk28Q0Uw3pWes-29" target="_UWJMSMbk28Q0Uw3pWes-36">
          <mxGeometry relative="1" as="geometry">
            <mxPoint x="-1026.5" y="498.5" as="targetPoint" />
          </mxGeometry>
        </mxCell>
        <mxCell id="_UWJMSMbk28Q0Uw3pWes-29" value="遍历循环dtoItems" style="rounded=1;whiteSpace=wrap;html=1;" vertex="1" parent="WIyWlLk6GJQsqaUBKTNV-1">
          <mxGeometry x="-1514" y="400" width="120" height="60" as="geometry" />
        </mxCell>
        <mxCell id="_UWJMSMbk28Q0Uw3pWes-30" value="" style="edgeStyle=orthogonalEdgeStyle;rounded=0;orthogonalLoop=1;jettySize=auto;html=1;exitX=1;exitY=0.5;exitDx=0;exitDy=0;" edge="1" parent="WIyWlLk6GJQsqaUBKTNV-1" source="_UWJMSMbk28Q0Uw3pWes-36" target="_UWJMSMbk28Q0Uw3pWes-33">
          <mxGeometry relative="1" as="geometry">
            <mxPoint x="-966.5" y="528.5" as="sourcePoint" />
          </mxGeometry>
        </mxCell>
        <mxCell id="_UWJMSMbk28Q0Uw3pWes-31" value="非空" style="edgeLabel;html=1;align=center;verticalAlign=middle;resizable=0;points=[];" vertex="1" connectable="0" parent="_UWJMSMbk28Q0Uw3pWes-30">
          <mxGeometry x="-0.2769" relative="1" as="geometry">
            <mxPoint as="offset" />
          </mxGeometry>
        </mxCell>
        <mxCell id="_UWJMSMbk28Q0Uw3pWes-32" value="" style="edgeStyle=orthogonalEdgeStyle;rounded=0;orthogonalLoop=1;jettySize=auto;html=1;entryX=1;entryY=0.5;entryDx=0;entryDy=0;" edge="1" parent="WIyWlLk6GJQsqaUBKTNV-1" source="_UWJMSMbk28Q0Uw3pWes-33" target="_UWJMSMbk28Q0Uw3pWes-43">
          <mxGeometry relative="1" as="geometry">
            <mxPoint x="-1096.5" y="658.5" as="targetPoint" />
          </mxGeometry>
        </mxCell>
        <mxCell id="_UWJMSMbk28Q0Uw3pWes-33" value="dtoItem的itemCode查询itemMaster" style="rounded=1;whiteSpace=wrap;html=1;" vertex="1" parent="WIyWlLk6GJQsqaUBKTNV-1">
          <mxGeometry x="-966.5" y="628.5" width="120" height="60" as="geometry" />
        </mxCell>
        <mxCell id="_UWJMSMbk28Q0Uw3pWes-34" style="edgeStyle=orthogonalEdgeStyle;rounded=0;orthogonalLoop=1;jettySize=auto;html=1;exitX=0.5;exitY=1;exitDx=0;exitDy=0;entryX=1;entryY=0.5;entryDx=0;entryDy=0;" edge="1" parent="WIyWlLk6GJQsqaUBKTNV-1" source="_UWJMSMbk28Q0Uw3pWes-36" target="_UWJMSMbk28Q0Uw3pWes-38">
          <mxGeometry relative="1" as="geometry" />
        </mxCell>
        <mxCell id="_UWJMSMbk28Q0Uw3pWes-35" value="空" style="edgeLabel;html=1;align=center;verticalAlign=middle;resizable=0;points=[];" vertex="1" connectable="0" parent="_UWJMSMbk28Q0Uw3pWes-34">
          <mxGeometry x="-0.1" relative="1" as="geometry">
            <mxPoint as="offset" />
          </mxGeometry>
        </mxCell>
        <mxCell id="_UWJMSMbk28Q0Uw3pWes-36" value="&lt;div&gt;dtoItem字段&lt;/div&gt;&lt;div&gt;非空验证&lt;br&gt;&lt;/div&gt;" style="rhombus;whiteSpace=wrap;html=1;" vertex="1" parent="WIyWlLk6GJQsqaUBKTNV-1">
          <mxGeometry x="-1156.5" y="390" width="80" height="80" as="geometry" />
        </mxCell>
        <mxCell id="_UWJMSMbk28Q0Uw3pWes-79" style="edgeStyle=orthogonalEdgeStyle;rounded=0;orthogonalLoop=1;jettySize=auto;html=1;exitX=0.5;exitY=0;exitDx=0;exitDy=0;entryX=0.5;entryY=1;entryDx=0;entryDy=0;" edge="1" parent="WIyWlLk6GJQsqaUBKTNV-1" source="_UWJMSMbk28Q0Uw3pWes-38" target="_UWJMSMbk28Q0Uw3pWes-29">
          <mxGeometry relative="1" as="geometry" />
        </mxCell>
        <mxCell id="_UWJMSMbk28Q0Uw3pWes-38" value="errorMessage添加错误日志" style="rounded=1;whiteSpace=wrap;html=1;" vertex="1" parent="WIyWlLk6GJQsqaUBKTNV-1">
          <mxGeometry x="-1286.5" y="500" width="90" height="40" as="geometry" />
        </mxCell>
        <mxCell id="_UWJMSMbk28Q0Uw3pWes-41" value="" style="edgeStyle=orthogonalEdgeStyle;rounded=0;orthogonalLoop=1;jettySize=auto;html=1;" edge="1" parent="WIyWlLk6GJQsqaUBKTNV-1" source="_UWJMSMbk28Q0Uw3pWes-43" target="_UWJMSMbk28Q0Uw3pWes-48">
          <mxGeometry relative="1" as="geometry" />
        </mxCell>
        <mxCell id="_UWJMSMbk28Q0Uw3pWes-42" value="存在" style="edgeLabel;html=1;align=center;verticalAlign=middle;resizable=0;points=[];" vertex="1" connectable="0" parent="_UWJMSMbk28Q0Uw3pWes-41">
          <mxGeometry x="-0.225" y="3" relative="1" as="geometry">
            <mxPoint as="offset" />
          </mxGeometry>
        </mxCell>
        <mxCell id="_UWJMSMbk28Q0Uw3pWes-88" style="edgeStyle=orthogonalEdgeStyle;rounded=0;orthogonalLoop=1;jettySize=auto;html=1;exitX=0.5;exitY=0;exitDx=0;exitDy=0;entryX=0.5;entryY=1;entryDx=0;entryDy=0;" edge="1" parent="WIyWlLk6GJQsqaUBKTNV-1" source="_UWJMSMbk28Q0Uw3pWes-43" target="_UWJMSMbk28Q0Uw3pWes-38">
          <mxGeometry relative="1" as="geometry" />
        </mxCell>
        <mxCell id="_UWJMSMbk28Q0Uw3pWes-90" value="不存在" style="edgeLabel;html=1;align=center;verticalAlign=middle;resizable=0;points=[];" vertex="1" connectable="0" parent="_UWJMSMbk28Q0Uw3pWes-88">
          <mxGeometry x="-0.3983" y="2" relative="1" as="geometry">
            <mxPoint as="offset" />
          </mxGeometry>
        </mxCell>
        <mxCell id="_UWJMSMbk28Q0Uw3pWes-43" value="校验itemMaster是否存在" style="rhombus;whiteSpace=wrap;html=1;" vertex="1" parent="WIyWlLk6GJQsqaUBKTNV-1">
          <mxGeometry x="-1186.5" y="618.5" width="80" height="80" as="geometry" />
        </mxCell>
        <mxCell id="_UWJMSMbk28Q0Uw3pWes-46" value="" style="edgeStyle=orthogonalEdgeStyle;rounded=0;orthogonalLoop=1;jettySize=auto;html=1;" edge="1" parent="WIyWlLk6GJQsqaUBKTNV-1" source="_UWJMSMbk28Q0Uw3pWes-48" target="_UWJMSMbk28Q0Uw3pWes-52">
          <mxGeometry relative="1" as="geometry" />
        </mxCell>
        <mxCell id="_UWJMSMbk28Q0Uw3pWes-47" value="正确" style="edgeLabel;html=1;align=center;verticalAlign=middle;resizable=0;points=[];" vertex="1" connectable="0" parent="_UWJMSMbk28Q0Uw3pWes-46">
          <mxGeometry x="-0.225" y="3" relative="1" as="geometry">
            <mxPoint as="offset" />
          </mxGeometry>
        </mxCell>
        <mxCell id="_UWJMSMbk28Q0Uw3pWes-89" style="edgeStyle=orthogonalEdgeStyle;rounded=0;orthogonalLoop=1;jettySize=auto;html=1;exitX=0.5;exitY=0;exitDx=0;exitDy=0;entryX=0.5;entryY=1;entryDx=0;entryDy=0;" edge="1" parent="WIyWlLk6GJQsqaUBKTNV-1" source="_UWJMSMbk28Q0Uw3pWes-48" target="_UWJMSMbk28Q0Uw3pWes-38">
          <mxGeometry relative="1" as="geometry" />
        </mxCell>
        <mxCell id="_UWJMSMbk28Q0Uw3pWes-91" value="不存在" style="edgeLabel;html=1;align=center;verticalAlign=middle;resizable=0;points=[];" vertex="1" connectable="0" parent="_UWJMSMbk28Q0Uw3pWes-89">
          <mxGeometry x="-0.2864" y="-2" relative="1" as="geometry">
            <mxPoint as="offset" />
          </mxGeometry>
        </mxCell>
        <mxCell id="_UWJMSMbk28Q0Uw3pWes-48" value="校验coo信息是否正确" style="rhombus;whiteSpace=wrap;html=1;" vertex="1" parent="WIyWlLk6GJQsqaUBKTNV-1">
          <mxGeometry x="-1346.5" y="618.5" width="80" height="80" as="geometry" />
        </mxCell>
        <mxCell id="_UWJMSMbk28Q0Uw3pWes-49" style="edgeStyle=orthogonalEdgeStyle;rounded=0;orthogonalLoop=1;jettySize=auto;html=1;exitX=0.5;exitY=0;exitDx=0;exitDy=0;entryX=0;entryY=0.5;entryDx=0;entryDy=0;" edge="1" parent="WIyWlLk6GJQsqaUBKTNV-1" source="_UWJMSMbk28Q0Uw3pWes-52" target="_UWJMSMbk28Q0Uw3pWes-38">
          <mxGeometry relative="1" as="geometry" />
        </mxCell>
        <mxCell id="_UWJMSMbk28Q0Uw3pWes-50" value="不正确" style="edgeLabel;html=1;align=center;verticalAlign=middle;resizable=0;points=[];" vertex="1" connectable="0" parent="_UWJMSMbk28Q0Uw3pWes-49">
          <mxGeometry x="-0.8098" y="2" relative="1" as="geometry">
            <mxPoint x="2" y="9" as="offset" />
          </mxGeometry>
        </mxCell>
        <mxCell id="_UWJMSMbk28Q0Uw3pWes-81" style="edgeStyle=orthogonalEdgeStyle;rounded=0;orthogonalLoop=1;jettySize=auto;html=1;exitX=0.5;exitY=1;exitDx=0;exitDy=0;entryX=0.5;entryY=0;entryDx=0;entryDy=0;" edge="1" parent="WIyWlLk6GJQsqaUBKTNV-1" source="_UWJMSMbk28Q0Uw3pWes-52" target="_UWJMSMbk28Q0Uw3pWes-80">
          <mxGeometry relative="1" as="geometry" />
        </mxCell>
        <mxCell id="_UWJMSMbk28Q0Uw3pWes-82" value="正确" style="edgeLabel;html=1;align=center;verticalAlign=middle;resizable=0;points=[];" vertex="1" connectable="0" parent="_UWJMSMbk28Q0Uw3pWes-81">
          <mxGeometry x="-0.2515" y="-1" relative="1" as="geometry">
            <mxPoint as="offset" />
          </mxGeometry>
        </mxCell>
        <mxCell id="_UWJMSMbk28Q0Uw3pWes-52" value="&lt;div&gt;校验uom&lt;/div&gt;&lt;div&gt;是否正确&lt;br&gt;&lt;/div&gt;" style="rhombus;whiteSpace=wrap;html=1;" vertex="1" parent="WIyWlLk6GJQsqaUBKTNV-1">
          <mxGeometry x="-1514" y="618.5" width="80" height="80" as="geometry" />
        </mxCell>
        <mxCell id="_UWJMSMbk28Q0Uw3pWes-53" value="" style="edgeStyle=orthogonalEdgeStyle;rounded=0;orthogonalLoop=1;jettySize=auto;html=1;exitX=1;exitY=0.5;exitDx=0;exitDy=0;" edge="1" parent="WIyWlLk6GJQsqaUBKTNV-1" source="_UWJMSMbk28Q0Uw3pWes-57" target="_UWJMSMbk28Q0Uw3pWes-59">
          <mxGeometry relative="1" as="geometry" />
        </mxCell>
        <mxCell id="_UWJMSMbk28Q0Uw3pWes-54" value="yes" style="edgeLabel;html=1;align=center;verticalAlign=middle;resizable=0;points=[];" vertex="1" connectable="0" parent="_UWJMSMbk28Q0Uw3pWes-53">
          <mxGeometry x="-0.1915" y="-3" relative="1" as="geometry">
            <mxPoint x="1" as="offset" />
          </mxGeometry>
        </mxCell>
        <mxCell id="_UWJMSMbk28Q0Uw3pWes-83" style="edgeStyle=orthogonalEdgeStyle;rounded=0;orthogonalLoop=1;jettySize=auto;html=1;exitX=0.5;exitY=1;exitDx=0;exitDy=0;entryX=0.5;entryY=0;entryDx=0;entryDy=0;" edge="1" parent="WIyWlLk6GJQsqaUBKTNV-1" source="_UWJMSMbk28Q0Uw3pWes-57" target="_UWJMSMbk28Q0Uw3pWes-60">
          <mxGeometry relative="1" as="geometry" />
        </mxCell>
        <mxCell id="_UWJMSMbk28Q0Uw3pWes-57" value="&lt;div&gt;errorMessage&lt;/div&gt;&lt;div&gt;&amp;lt;0&lt;br&gt;&lt;/div&gt;" style="rhombus;whiteSpace=wrap;html=1;" vertex="1" parent="WIyWlLk6GJQsqaUBKTNV-1">
          <mxGeometry x="-1394" y="745" width="95" height="90" as="geometry" />
        </mxCell>
        <mxCell id="_UWJMSMbk28Q0Uw3pWes-58" style="edgeStyle=orthogonalEdgeStyle;rounded=0;orthogonalLoop=1;jettySize=auto;html=1;exitX=1;exitY=0.5;exitDx=0;exitDy=0;entryX=0;entryY=0.5;entryDx=0;entryDy=0;" edge="1" parent="WIyWlLk6GJQsqaUBKTNV-1" source="_UWJMSMbk28Q0Uw3pWes-59" target="_UWJMSMbk28Q0Uw3pWes-64">
          <mxGeometry relative="1" as="geometry" />
        </mxCell>
        <mxCell id="_UWJMSMbk28Q0Uw3pWes-59" value="&lt;div&gt;转换SpecialApproval&lt;/div&gt;&lt;div&gt;DetailDto对象并存放新的集合里面&lt;/div&gt;" style="rounded=1;whiteSpace=wrap;html=1;" vertex="1" parent="WIyWlLk6GJQsqaUBKTNV-1">
          <mxGeometry x="-1256.5" y="760" width="120" height="60" as="geometry" />
        </mxCell>
        <mxCell id="_UWJMSMbk28Q0Uw3pWes-60" value="isSussess=false" style="rounded=1;whiteSpace=wrap;html=1;" vertex="1" parent="WIyWlLk6GJQsqaUBKTNV-1">
          <mxGeometry x="-1396.5" y="895" width="100" height="45" as="geometry" />
        </mxCell>
        <mxCell id="_UWJMSMbk28Q0Uw3pWes-61" value="" style="edgeStyle=orthogonalEdgeStyle;rounded=0;orthogonalLoop=1;jettySize=auto;html=1;entryX=0;entryY=0.5;entryDx=0;entryDy=0;" edge="1" parent="WIyWlLk6GJQsqaUBKTNV-1" source="_UWJMSMbk28Q0Uw3pWes-64" target="_UWJMSMbk28Q0Uw3pWes-74">
          <mxGeometry relative="1" as="geometry">
            <mxPoint x="-988.5" y="955" as="targetPoint" />
          </mxGeometry>
        </mxCell>
        <mxCell id="_UWJMSMbk28Q0Uw3pWes-62" value="true" style="edgeLabel;html=1;align=center;verticalAlign=middle;resizable=0;points=[];" vertex="1" connectable="0" parent="_UWJMSMbk28Q0Uw3pWes-61">
          <mxGeometry x="-0.2741" y="2" relative="1" as="geometry">
            <mxPoint as="offset" />
          </mxGeometry>
        </mxCell>
        <mxCell id="_UWJMSMbk28Q0Uw3pWes-71" style="edgeStyle=orthogonalEdgeStyle;rounded=0;orthogonalLoop=1;jettySize=auto;html=1;exitX=0.5;exitY=1;exitDx=0;exitDy=0;entryX=0.5;entryY=1;entryDx=0;entryDy=0;" edge="1" parent="WIyWlLk6GJQsqaUBKTNV-1" source="_UWJMSMbk28Q0Uw3pWes-64" target="_UWJMSMbk28Q0Uw3pWes-0">
          <mxGeometry relative="1" as="geometry">
            <Array as="points">
              <mxPoint x="-1056.5" y="980" />
              <mxPoint x="-1573.5" y="980" />
            </Array>
          </mxGeometry>
        </mxCell>
        <mxCell id="_UWJMSMbk28Q0Uw3pWes-72" value="false" style="edgeLabel;html=1;align=center;verticalAlign=middle;resizable=0;points=[];" vertex="1" connectable="0" parent="_UWJMSMbk28Q0Uw3pWes-71">
          <mxGeometry x="-0.9567" relative="1" as="geometry">
            <mxPoint as="offset" />
          </mxGeometry>
        </mxCell>
        <mxCell id="_UWJMSMbk28Q0Uw3pWes-64" value="isSussess" style="rhombus;whiteSpace=wrap;html=1;" vertex="1" parent="WIyWlLk6GJQsqaUBKTNV-1">
          <mxGeometry x="-1096.5" y="750" width="80" height="80" as="geometry" />
        </mxCell>
        <mxCell id="_UWJMSMbk28Q0Uw3pWes-73" value="" style="edgeStyle=orthogonalEdgeStyle;rounded=0;orthogonalLoop=1;jettySize=auto;html=1;" edge="1" parent="WIyWlLk6GJQsqaUBKTNV-1" source="_UWJMSMbk28Q0Uw3pWes-74" target="_UWJMSMbk28Q0Uw3pWes-75">
          <mxGeometry relative="1" as="geometry" />
        </mxCell>
        <mxCell id="_UWJMSMbk28Q0Uw3pWes-74" value="&lt;div&gt;保存上传的execl 到db&lt;/div&gt;&lt;div&gt;获取 excelUploadId&lt;br&gt;&lt;/div&gt;" style="rounded=1;whiteSpace=wrap;html=1;" vertex="1" parent="WIyWlLk6GJQsqaUBKTNV-1">
          <mxGeometry x="-966.5" y="760" width="120" height="60" as="geometry" />
        </mxCell>
        <mxCell id="_UWJMSMbk28Q0Uw3pWes-75" value="&lt;div&gt;end&lt;/div&gt;" style="rounded=1;whiteSpace=wrap;html=1;" vertex="1" parent="WIyWlLk6GJQsqaUBKTNV-1">
          <mxGeometry x="-966.5" y="880" width="120" height="60" as="geometry" />
        </mxCell>
        <mxCell id="_UWJMSMbk28Q0Uw3pWes-84" style="edgeStyle=orthogonalEdgeStyle;rounded=0;orthogonalLoop=1;jettySize=auto;html=1;exitX=1;exitY=0.5;exitDx=0;exitDy=0;entryX=0;entryY=0.5;entryDx=0;entryDy=0;" edge="1" parent="WIyWlLk6GJQsqaUBKTNV-1" source="_UWJMSMbk28Q0Uw3pWes-80" target="_UWJMSMbk28Q0Uw3pWes-57">
          <mxGeometry relative="1" as="geometry" />
        </mxCell>
        <mxCell id="_UWJMSMbk28Q0Uw3pWes-85" value="yes" style="edgeLabel;html=1;align=center;verticalAlign=middle;resizable=0;points=[];" vertex="1" connectable="0" parent="_UWJMSMbk28Q0Uw3pWes-84">
          <mxGeometry x="-0.2432" y="2" relative="1" as="geometry">
            <mxPoint as="offset" />
          </mxGeometry>
        </mxCell>
        <mxCell id="_UWJMSMbk28Q0Uw3pWes-86" style="edgeStyle=orthogonalEdgeStyle;rounded=0;orthogonalLoop=1;jettySize=auto;html=1;exitX=0;exitY=0.5;exitDx=0;exitDy=0;entryX=0;entryY=0.5;entryDx=0;entryDy=0;" edge="1" parent="WIyWlLk6GJQsqaUBKTNV-1" source="_UWJMSMbk28Q0Uw3pWes-80" target="_UWJMSMbk28Q0Uw3pWes-29">
          <mxGeometry relative="1" as="geometry" />
        </mxCell>
        <mxCell id="_UWJMSMbk28Q0Uw3pWes-87" value="no" style="edgeLabel;html=1;align=center;verticalAlign=middle;resizable=0;points=[];" vertex="1" connectable="0" parent="_UWJMSMbk28Q0Uw3pWes-86">
          <mxGeometry x="-0.665" y="3" relative="1" as="geometry">
            <mxPoint x="1" as="offset" />
          </mxGeometry>
        </mxCell>
        <mxCell id="_UWJMSMbk28Q0Uw3pWes-80" value="&lt;div&gt;检查是否&lt;/div&gt;&lt;div&gt;最后一条记录&lt;br&gt;&lt;/div&gt;" style="rhombus;whiteSpace=wrap;html=1;" vertex="1" parent="WIyWlLk6GJQsqaUBKTNV-1">
          <mxGeometry x="-1514" y="750" width="80" height="80" as="geometry" />
        </mxCell>
      </root>
    </mxGraphModel>
  </diagram>
</mxfile>
